<svg width="26" height="26" viewBox="0 0 26 26" fill="none" xmlns="http://www.w3.org/2000/svg">
<rect width="26" height="26" rx="8" fill="#C97878"/>
<path d="M20.529 18.4176L15.1114 13L20.529 7.58239C21.1139 6.99749 21.1139 6.05584 20.529 5.47093C19.9441 4.88603 19.0025 4.88603 18.4176 5.47093L13 10.8885L7.58236 5.47093C6.99746 4.88603 6.05581 4.88603 5.4709 5.47093C4.886 6.05584 4.886 6.99749 5.4709 7.58239L10.8885 13L5.4709 18.4176C4.886 19.0025 4.886 19.9442 5.4709 20.5291C6.05581 21.114 6.99746 21.114 7.58236 20.5291L13 15.1115L18.4176 20.5291C19.0025 21.114 19.9441 21.114 20.529 20.5291C21.1098 19.9442 21.1098 18.9984 20.529 18.4176Z" fill="white"/>
</svg>
