<svg width="26" height="26" viewBox="0 0 26 26" fill="none" xmlns="http://www.w3.org/2000/svg">
<rect width="26" height="26" rx="8" fill="#388E6A"/>
<path d="M20.608 12.5807C19.8777 12.5807 19.5315 13.0953 19.4099 13.6386C18.9719 15.594 17.1136 18.5714 13.4191 18.5714C10.1104 18.5714 7.4283 15.8888 7.4283 12.5807C7.4283 9.27254 10.1104 6.58987 13.4191 6.58987C14.761 6.58987 15.9921 7.04097 16.9896 7.78802H15.8154C15.154 7.78802 14.6172 8.3248 14.6172 8.98618C14.6172 9.64756 15.154 10.1843 15.8154 10.1843H19.4099C20.0712 10.1843 20.608 9.64756 20.608 8.98618V5.39171C20.608 4.73033 20.0712 4.19355 19.4099 4.19355C18.7485 4.19355 18.2117 4.73033 18.2117 5.39171V5.70203C16.8536 4.7519 15.2025 4.19355 13.4191 4.19355C8.78701 4.19355 5.03198 7.94858 5.03198 12.5807C5.03198 17.2127 8.78701 20.9678 13.4191 20.9678C19.3973 20.9678 21.8062 15.2765 21.8062 13.8537C21.8062 12.9832 21.17 12.5807 20.608 12.5807Z" fill="white"/>
</svg>
